<?xml version="1.0" encoding="UTF-8" standalone="no"?>
<!-- Created with Inkscape (http://www.inkscape.org/) -->

<svg
   version="1.1"
   id="svg824"
   width="162.74023"
   height="201.4408"
   viewBox="0 0 162.74023 201.4408"
   sodipodi:docname="SVG_logoGeneric.svg"
   inkscape:version="1.1 (c68e22c387, 2021-05-23)"
   xmlns:inkscape="http://www.inkscape.org/namespaces/inkscape"
   xmlns:sodipodi="http://sodipodi.sourceforge.net/DTD/sodipodi-0.dtd"
   xmlns="http://www.w3.org/2000/svg"
   xmlns:svg="http://www.w3.org/2000/svg">
  <defs
     id="defs828" />
  <sodipodi:namedview
     id="namedview826"
     pagecolor="#ffffff"
     bordercolor="#666666"
     borderopacity="1.0"
     inkscape:pageshadow="2"
     inkscape:pageopacity="0.0"
     inkscape:pagecheckerboard="true"
     showgrid="false"
     inkscape:zoom="3.5860928"
     inkscape:cx="65.112649"
     inkscape:cy="101.78208"
     inkscape:window-width="1931"
     inkscape:window-height="954"
     inkscape:window-x="104"
     inkscape:window-y="104"
     inkscape:window-maximized="0"
     inkscape:current-layer="g830"
     fit-margin-top="2"
     fit-margin-right="2"
     fit-margin-bottom="2"
     fit-margin-left="2" />
  <g
     inkscape:groupmode="layer"
     inkscape:label="Image"
     id="g830"
     transform="translate(0.48632861,1.2441411)">
    <path
       id="path54227"
       d="m 159.22189,185.42319 q 0,3.5547 -1.82292,5.61199 -1.82292,2.05729 -4.88282,2.05729 -3.08594,0 -4.90886,-2.05729 -1.80989,-2.05729 -1.80989,-5.61199 0,-3.55469 1.80989,-5.61198 1.82292,-2.07032 4.90886,-2.07032 3.0599,0 4.88282,2.07032 1.82292,2.05729 1.82292,5.61198 z m -2.52604,0 q 0,-2.82552 -1.10678,-4.19271 -1.10677,-1.38021 -3.07292,-1.38021 -1.99219,0 -3.09896,1.38021 -1.09375,1.36719 -1.09375,4.19271 0,2.73438 1.10677,4.15365 1.10678,1.40626 3.08594,1.40626 1.95313,0 3.0599,-1.39323 1.1198,-1.40626 1.1198,-4.16668 z m -14.68753,5.61199 q 0,3.69792 -1.67969,5.42969 -1.67969,1.73178 -5.16927,1.73178 -1.15886,0 -2.26563,-0.16927 -1.09375,-0.15625 -2.16146,-0.45573 v -2.50001 h 0.13021 q 0.59896,0.23438 1.90104,0.57292 1.30209,0.35156 2.60417,0.35156 1.25,0 2.07032,-0.29948 0.82031,-0.29948 1.27604,-0.83333 0.45573,-0.50781 0.65104,-1.22396 0.19531,-0.71615 0.19531,-1.60156 v -1.32813 q -1.10677,0.88542 -2.12239,1.32813 -1.00261,0.42968 -2.56511,0.42968 -2.60417,0 -4.14063,-1.875 -1.52344,-1.88802 -1.52344,-5.31251 0,-1.875 0.52083,-3.22917 0.53386,-1.36719 1.44532,-2.35677 0.84635,-0.92448 2.05729,-1.43229 1.21094,-0.52084 2.40886,-0.52084 1.26302,0 2.10938,0.26042 0.85937,0.2474 1.80989,0.76823 l 0.15625,-0.625 h 2.29167 z m -2.44792,-2.34375 v -7.9297 q -0.97656,-0.44271 -1.82291,-0.625 -0.83334,-0.19531 -1.66667,-0.19531 -2.01824,0 -3.17709,1.35416 -1.15886,1.35417 -1.15886,3.9323 0,2.44792 0.85938,3.71094 0.85938,1.26303 2.85157,1.26303 1.06771,0 2.13542,-0.40365 1.08073,-0.41667 1.97916,-1.10677 z m -13.13803,-3.26824 q 0,3.5547 -1.82292,5.61199 -1.82292,2.05729 -4.88282,2.05729 -3.08594,0 -4.90886,-2.05729 -1.8099,-2.05729 -1.8099,-5.61199 0,-3.55469 1.8099,-5.61198 1.82292,-2.07032 4.90886,-2.07032 3.0599,0 4.88282,2.07032 1.82292,2.05729 1.82292,5.61198 z m -2.52605,0 q 0,-2.82552 -1.10677,-4.19271 -1.10677,-1.38021 -3.07292,-1.38021 -1.99219,0 -3.09896,1.38021 -1.09375,1.36719 -1.09375,4.19271 0,2.73438 1.10677,4.15365 1.10677,1.40626 3.08594,1.40626 1.95313,0 3.0599,-1.39323 1.11979,-1.40626 1.11979,-4.16668 z m -12.25262,7.26564 H 99.37806 v -19.38805 h 2.57813 v 17.09638 h 9.68751 z m -24.791695,-0.13021 q -0.690105,0.18229 -1.510418,0.29948 -0.807293,0.11719 -1.445315,0.11719 -2.226565,0 -3.385421,-1.19792 -1.158855,-1.19792 -1.158855,-3.84115 v -7.73439 h -1.653648 v -2.05729 h 1.653648 v -4.17969 h 2.447919 v 4.17969 h 5.05209 v 2.05729 h -5.05209 v 6.62762 q 0,1.14583 0.05208,1.79687 0.05208,0.63802 0.364584,1.19792 0.286458,0.52083 0.781251,0.76823 0.507813,0.23438 1.53646,0.23438 0.598959,0 1.250002,-0.16928 0.651042,-0.18229 0.937501,-0.29947 h 0.130208 z m -12.265642,0.13021 h -2.44792 v -8.28126 q 0,-1.00261 -0.117187,-1.87501 -0.117188,-0.88541 -0.429688,-1.38021 -0.325522,-0.54687 -0.937502,-0.80729 -0.611979,-0.27344 -1.588543,-0.27344 -1.002606,0 -2.096357,0.4948 -1.093751,0.49479 -2.096357,1.26302 v 10.85939 h -2.44792 v -14.54429 h 2.44792 v 1.61458 q 1.145835,-0.95052 2.369795,-1.48437 1.22396,-0.53386 2.513024,-0.53386 2.356774,0 3.593754,1.41927 1.236981,1.41928 1.236981,4.08855 z M 58.713947,185.67059 H 47.997788 q 0,1.34115 0.403646,2.34375 0.403646,0.98959 1.106772,1.62761 0.677084,0.625 1.601565,0.9375 0.937501,0.3125 2.057294,0.3125 1.484377,0 2.981775,-0.58594 1.510418,-0.59896 2.14844,-1.17187 h 0.130208 v 2.66927 q -1.23698,0.52083 -2.526045,0.8724 -1.289064,0.35156 -2.708336,0.35156 -3.619797,0 -5.651049,-1.95313 -2.031253,-1.96615 -2.031253,-5.57292 0,-3.56771 1.940107,-5.66407 1.953127,-2.09636 5.130215,-2.09636 2.942712,0 4.531255,1.71875 1.601565,1.71876 1.601565,4.88282 z m -2.382816,-1.875 q -0.01302,-1.92709 -0.976563,-2.98178 -0.950522,-1.05469 -2.90365,-1.05469 -1.966148,0 -3.138025,1.15886 -1.158855,1.15885 -1.315105,2.87761 z m -14.479182,-8.08595 h -2.76042 v -2.53907 h 2.76042 z m -0.15625,16.97919 h -2.44792 v -14.54429 h 2.44792 z m -7.317718,0 h -2.44792 v -20.26044 h 2.44792 z m -5.924488,-1.40625 q -0.716146,0.3125 -1.302085,0.58593 -0.572917,0.27344 -1.510418,0.57292 -0.794272,0.2474 -1.731773,0.41667 -0.924481,0.18229 -2.044274,0.18229 -2.109377,0 -3.84115,-0.58594 -1.718752,-0.59896 -2.994796,-1.86198 -1.250001,-1.23698 -1.953127,-3.13802 -0.703126,-1.91407 -0.703126,-4.44011 0,-2.39584 0.677084,-4.28386 0.677084,-1.88803 1.953128,-3.19011 1.23698,-1.26302 2.981774,-1.92709 1.757815,-0.66406 3.893234,-0.66406 1.562502,0 3.111983,0.3776 1.562502,0.37761 3.463546,1.32813 v 3.0599 h -0.195312 q -1.601565,-1.34115 -3.177088,-1.95313 -1.575523,-0.61198 -3.3724,-0.61198 -1.471356,0 -2.656253,0.48177 -1.171877,0.46875 -2.096357,1.47136 -0.898439,0.97656 -1.406252,2.47396 -0.494792,1.48438 -0.494792,3.43751 0,2.04427 0.546876,3.51563 0.559896,1.47135 1.432293,2.39583 0.91146,0.96354 2.122399,1.4323 1.22396,0.45573 2.578128,0.45573 1.861981,0 3.489588,-0.63803 1.627606,-0.63802 3.046878,-1.91406 h 0.182292 z"
       style="display:inline;fill:#c84b4b;fill-opacity:1"
       inkscape:label="client_logo" />
    <path
       id="path54230"
       d="m 132.37476,86.864293 q -1.71219,0.785925 -3.74718,1.375369 -2.02095,0.575409 -3.91559,0.575409 -2.44198,0 -4.47696,-0.67365 -2.03499,-0.673649 -3.46649,-2.020949 -1.44555,-1.361335 -2.23147,-3.396319 -0.78593,-2.049019 -0.78593,-4.785722 0,-5.010272 2.91915,-7.901353 2.93319,-2.905115 8.0417,-2.905115 1.78237,0 3.6349,0.435065 1.86658,0.421032 4.01384,1.445541 v 3.298078 h -0.25262 q -0.43507,-0.336825 -1.2631,-0.884166 -0.82802,-0.54734 -1.62798,-0.912234 -0.96838,-0.435066 -2.2034,-0.715753 -1.22099,-0.294722 -2.77881,-0.294722 -3.50859,0 -5.55761,2.259534 -2.03498,2.2455 -2.03498,6.090919 0,4.055934 2.13322,6.315468 2.13323,2.2455 5.81023,2.2455 1.3473,0 2.68057,-0.266653 1.3473,-0.266653 2.35777,-0.687684 v -5.122547 h -5.59971 v -2.441981 h 8.35045 z M 91.038534,117.65026 q 0,4.70171 -2.536712,7.42284 -2.536711,2.72114 -6.794763,2.72114 -4.294291,0 -6.831002,-2.72114 -2.518592,-2.72113 -2.518592,-7.42284 0,-4.70171 2.518592,-7.42285 2.536711,-2.73836 6.831002,-2.73836 4.258052,0 6.794763,2.73836 2.536712,2.72114 2.536712,7.42285 z m -3.515158,0 q 0,-3.73726 -1.540145,-5.54561 -1.540147,-1.82557 -4.276172,-1.82557 -2.772263,0 -4.31241,1.82557 -1.522026,1.80835 -1.522026,5.54561 0,3.6167 1.540145,5.49394 1.540147,1.86002 4.294291,1.86002 2.717906,0 4.258052,-1.84279 1.558265,-1.86002 1.558265,-5.51117 z M 49.104831,77.714289 q 0,4.701712 -2.536712,7.422848 -2.536712,2.721137 -6.794763,2.721137 -4.294291,0 -6.831003,-2.721137 -2.518592,-2.721136 -2.518592,-7.422848 0,-4.701711 2.518592,-7.422848 2.536712,-2.738359 6.831003,-2.738359 4.258051,0 6.794763,2.738359 2.536712,2.721137 2.536712,7.422848 z m -3.515158,0 q 0,-3.737257 -1.540146,-5.545608 -1.540146,-1.825573 -4.276171,-1.825573 -2.772264,0 -4.31241,1.825573 -1.522027,1.808351 -1.522027,5.545608 0,3.616701 1.540146,5.493941 1.540146,1.860017 4.294291,1.860017 2.717905,0 4.258051,-1.842795 1.558266,-1.860018 1.558266,-5.511163 z M 91.986178,50.894173 H 76.262983 V 29.127212 h 3.304875 v 19.194103 h 12.41832 z"
       style="display:inline;fill:#c84b4b;fill-opacity:1"
       inkscape:label="LOGO" />
    <path
       id="path936"
       style="display:inline;opacity:1;fill:#c84b4b;fill-opacity:1;stroke:#323232;stroke-width:0;stroke-linecap:round"
       d="M 80.882812,0.75585938 A 79.370079,79.370079 0 0 0 1.5136719,80.126953 79.370079,79.370079 0 0 0 80.882812,159.49609 79.370079,79.370079 0 0 0 160.25391,80.126953 79.370079,79.370079 0 0 0 80.882812,0.75585938 Z m 0,5.66992182 A 73.70079,73.70079 0 0 1 154.58203,80.126953 73.70079,73.70079 0 0 1 80.882812,153.82617 73.70079,73.70079 0 0 1 7.1816406,80.126953 73.70079,73.70079 0 0 1 80.882812,6.4257812 Z"
       inkscape:label="circle" />
    <path
       id="path9693"
       style="display:inline;fill:#c84b4b;fill-opacity:1;stroke:#c84b4b;stroke-width:6.67087;stroke-linecap:round;stroke-linejoin:miter;stroke-miterlimit:4;stroke-dasharray:6.67087, 6.67087;stroke-dashoffset:0;stroke-opacity:1"
       d="m 40.991689,39.318559 81.425671,81.146811 m -81.425671,0 80.867961,-81.146811"
       inkscape:label="cross" />
  </g>
</svg>
